<?xml version="1.0" standalone="no"?>
<!DOCTYPE svg PUBLIC "-//W3C//DTD SVG 20010904//EN"
 "http://www.w3.org/TR/2001/REC-SVG-20010904/DTD/svg10.dtd">
<svg version="1.0" xmlns="http://www.w3.org/2000/svg"
 width="457.000000pt" height="254.000000pt" viewBox="0 0 457.000000 254.000000"
 preserveAspectRatio="xMidYMid meet">

<g transform="translate(0.000000,254.000000) scale(0.100000,-0.100000)"
fill="#000000" stroke="none">
<path d="M312 2369 c-26 -13 -55 -39 -70 -62 l-27 -41 0 -826 0 -826 27 -41
c45 -68 77 -78 281 -81 l177 -3 0 -130 c0 -72 5 -139 10 -150 10 -18 26 -19
434 -19 364 0 425 2 436 15 10 12 9 20 -6 42 -16 25 -143 200 -167 231 -7 9
46 12 262 12 l271 0 0 -138 c0 -94 4 -142 12 -150 8 -8 59 -12 163 -12 178 0
216 12 262 81 l28 43 3 889 2 890 -21 44 c-26 54 -83 94 -144 101 -36 4 -45 8
-45 24 0 73 -66 132 -140 125 -58 -6 -110 -59 -110 -112 l0 -35 -690 0 -689 0
-3 73 -3 72 -105 3 c-91 2 -111 -1 -148 -19z m198 -773 l0 -733 -83 -5 c-47
-3 -97 -13 -115 -22 -17 -9 -34 -16 -37 -16 -3 0 -4 321 -3 714 3 707 3 715
24 743 27 36 73 52 152 52 l62 1 0 -734z m1527 706 c-10 -10 -17 -31 -17 -45
0 -26 2 -27 54 -27 49 0 55 2 59 23 4 19 4 18 6 -5 1 -28 1 -28 -64 -28 l-65
0 0 32 c0 27 23 68 38 68 3 0 -2 -8 -11 -18z m83 3 c19 -22 8 -25 -12 -3 -10
10 -14 18 -9 18 5 0 14 -7 21 -15z m-170 -470 l5 -340 49 -102 c49 -103 69
-125 92 -101 7 7 33 61 58 119 l46 107 0 326 c0 277 2 327 15 332 26 10 84
-17 107 -49 l23 -32 3 -787 c1 -434 1 -788 -2 -788 -2 0 -20 7 -39 15 -31 13
-110 15 -494 15 l-458 0 -296 407 c-162 224 -303 411 -313 417 -13 9 -20 7
-32 -8 -12 -17 -14 -87 -14 -419 l0 -399 -174 4 c-159 3 -177 5 -203 24 -59
44 -63 133 -7 185 23 22 37 25 137 29 l112 5 2 680 c2 374 5 686 8 693 3 10
146 12 687 10 l683 -3 5 -340z m188 23 l2 -298 -65 0 -65 0 0 300 0 301 63 -3
62 -3 3 -297z m-37 -408 c-10 -22 -20 -42 -23 -45 -2 -2 -14 16 -26 40 l-22
45 45 0 44 0 -18 -40z m-963 -707 c193 -265 348 -484 344 -487 -3 -3 -164 -6
-359 -6 l-353 0 0 497 c0 288 4 493 9 488 5 -6 166 -227 359 -492z m1161 -279
c44 -37 58 -94 34 -142 -29 -60 -67 -73 -208 -70 l-120 3 -3 118 -3 117 135 0
c130 0 136 -1 165 -26z"/>
<path d="M1249 2080 c-87 -59 -404 -326 -407 -343 -2 -10 13 -38 33 -62 36
-45 66 -56 82 -32 4 6 10 -90 13 -214 5 -205 7 -229 24 -248 19 -20 27 -21
311 -21 273 0 294 1 316 19 24 19 24 22 27 245 l3 226 24 -16 c22 -14 24 -13
64 33 24 28 40 56 39 68 -2 11 -77 80 -183 167 -198 163 -260 208 -285 208 -9
0 -36 -14 -61 -30z m284 -209 c143 -116 175 -146 166 -158 -10 -11 -14 -11
-28 0 -74 64 -354 287 -361 287 -7 0 -287 -223 -361 -287 -14 -11 -18 -11 -28
0 -9 12 23 42 166 158 233 190 221 182 247 161 12 -9 101 -82 199 -161z m-79
-62 l126 -103 0 -243 0 -243 -35 0 -35 0 -2 198 -3 197 -195 0 -195 0 -3 -197
-2 -198 -35 0 -35 0 0 243 0 243 132 108 c72 58 137 105 144 102 7 -3 69 -51
138 -107z m-4 -419 l0 -170 -140 0 -140 0 0 170 0 170 140 0 140 0 0 -170z"/>
<path d="M1180 1390 l0 -160 130 0 130 0 0 160 0 160 -130 0 -130 0 0 -160z"/>
<path d="M892 818 c-17 -17 -17 -419 0 -436 8 -8 60 -12 169 -12 193 0 200 4
145 82 -106 154 -274 373 -287 376 -8 1 -20 -3 -27 -10z m145 -238 c38 -52 77
-107 87 -122 l18 -28 -96 0 -96 0 0 132 c0 75 4 128 9 123 4 -6 40 -53 78
-105z"/>
<path d="M2780 1435 l0 -125 35 0 c34 0 35 1 35 40 0 36 2 40 25 40 33 0 81
25 89 45 8 22 7 77 -2 91 -15 23 -53 34 -116 34 l-66 0 0 -125z m113 53 c8
-12 7 -21 -2 -32 -23 -28 -41 -19 -41 20 0 28 4 35 16 32 9 -2 22 -10 27 -20z"/>
<path d="M4171 1533 c-13 -3 -26 -13 -28 -24 -3 -10 -12 -19 -19 -19 -8 0 -14
-10 -14 -25 0 -16 6 -25 15 -25 11 0 15 -12 15 -48 0 -60 22 -85 72 -80 27 2
34 8 36 29 2 21 -1 27 -15 25 -14 -1 -19 7 -21 37 -3 32 0 37 17 37 16 0 21 6
21 25 0 18 -5 25 -20 25 -15 0 -20 7 -20 25 0 14 -3 24 -7 24 -5 -1 -19 -4
-32 -6z"/>
<path d="M3000 1400 l0 -90 35 0 34 0 3 58 c3 54 4 57 31 60 23 3 27 8 27 33
0 31 -25 40 -48 17 -9 -9 -12 -9 -12 0 0 7 -14 12 -35 12 l-35 0 0 -90z"/>
<path d="M3169 1461 c-20 -20 -29 -39 -29 -61 0 -48 47 -90 100 -90 89 0 134
100 69 154 -44 37 -101 36 -140 -3z m96 -41 c9 -29 -4 -60 -25 -60 -10 0 -22
9 -25 20 -9 29 4 60 25 60 10 0 22 -9 25 -20z"/>
<path d="M3392 1474 c-35 -25 -27 -75 16 -93 17 -8 32 -18 32 -23 0 -11 -38
-10 -61 2 -16 9 -19 7 -19 -14 0 -26 16 -36 61 -36 83 0 119 81 49 110 -37 15
-40 35 -4 26 22 -6 25 -4 22 16 -2 18 -10 24 -38 26 -20 2 -45 -4 -58 -14z"/>
<path d="M3530 1359 l0 -129 35 0 c35 0 35 0 35 46 0 45 0 46 30 39 42 -9 68
2 85 35 21 40 19 83 -5 112 -18 23 -26 26 -100 26 l-80 0 0 -129z m125 61 c7
-23 -10 -60 -30 -60 -19 0 -28 35 -15 60 14 25 37 26 45 0z"/>
<path d="M3795 1478 c-32 -18 -44 -40 -45 -79 0 -48 26 -78 72 -86 56 -8 88 3
88 31 0 22 -3 24 -39 19 -23 -3 -41 -1 -45 6 -5 7 9 11 43 11 51 0 51 0 51 33
0 38 -7 50 -37 66 -27 14 -62 14 -88 -1z m63 -46 c2 -7 -6 -12 -17 -12 -21 0
-27 11 -14 24 9 9 26 2 31 -12z"/>
<path d="M3983 1471 c-81 -50 -34 -167 64 -159 32 3 38 7 41 29 3 23 0 25 -27
21 -36 -5 -53 20 -40 57 8 19 15 22 39 19 27 -4 30 -2 30 24 0 26 -3 28 -37
28 -21 0 -52 -9 -70 -19z"/>
<path d="M3293 1132 c-24 -20 -30 -42 -14 -42 6 0 11 -15 13 -32 2 -25 8 -34
26 -36 15 -2 22 2 22 12 0 9 -4 16 -10 16 -5 0 -10 9 -10 20 0 11 5 20 10 20
6 0 10 7 10 15 0 8 -4 15 -9 15 -5 0 -11 7 -13 16 -3 14 -6 13 -25 -4z"/>
<path d="M3372 1108 c-7 -7 -12 -24 -12 -38 0 -32 17 -50 47 -50 30 0 30 27 1
33 -20 4 -19 4 5 6 19 1 27 6 27 19 0 22 -19 42 -40 42 -9 0 -21 -5 -28 -12z
m43 -18 c3 -5 -3 -10 -15 -10 -12 0 -18 5 -15 10 3 6 10 10 15 10 5 0 12 -4
15 -10z"/>
<path d="M3470 1111 c0 -6 9 -11 19 -11 33 0 33 -17 0 -24 -25 -5 -30 -10 -27
-28 2 -19 10 -23 41 -24 l38 -1 -3 46 c-3 44 -4 46 -35 49 -19 2 -33 -1 -33
-7z m45 -61 c-3 -5 -10 -10 -16 -10 -5 0 -9 5 -9 10 0 6 7 10 16 10 8 0 12 -4
9 -10z"/>
<path d="M3570 1070 c0 -38 4 -50 15 -50 10 0 15 11 15 35 0 24 5 35 15 35 10
0 15 -11 15 -35 0 -24 5 -35 15 -35 10 0 15 11 15 35 0 24 5 35 15 35 10 0 15
-11 15 -35 0 -24 5 -35 15 -35 22 0 21 88 -1 97 -8 3 -20 1 -26 -5 -7 -7 -16
-7 -28 1 -14 8 -22 8 -34 -2 -11 -9 -16 -10 -16 -2 0 6 -7 11 -15 11 -11 0
-15 -12 -15 -50z"/>
</g>
</svg>
